<svg xmlns="http://www.w3.org/2000/svg" xmlns:xlink="http://www.w3.org/1999/xlink" width="200" zoomAndPan="magnify" viewBox="0 0 150 30.000001" height="40" preserveAspectRatio="xMidYMid meet" version="1.0"><defs><g/><clipPath id="id1"><path d="M 8.601562 10.9375 L 15.859375 10.9375 L 15.859375 18.195312 L 8.601562 18.195312 Z M 8.601562 10.9375 " clip-rule="nonzero"/></clipPath><clipPath id="id2"><path d="M 16.648438 9.824219 L 22.457031 9.824219 L 22.457031 19.257812 L 16.648438 19.257812 Z M 16.648438 9.824219 " clip-rule="nonzero"/></clipPath><clipPath id="id3"><path d="M 6.804688 5.804688 L 24.226562 5.804688 L 24.226562 23.226562 L 6.804688 23.226562 Z M 6.804688 5.804688 " clip-rule="nonzero"/></clipPath></defs><g clip-path="url(#id1)"><path fill="rgb(100%, 100%, 100%)" d="M 15.542969 14.046875 L 9.46875 11.035156 C 9.285156 10.941406 9.066406 10.949219 8.890625 11.058594 C 8.714844 11.164062 8.609375 11.351562 8.609375 11.554688 L 8.609375 17.578125 C 8.609375 17.78125 8.714844 17.96875 8.890625 18.078125 C 8.984375 18.132812 9.09375 18.164062 9.203125 18.164062 C 9.292969 18.164062 9.386719 18.140625 9.46875 18.101562 L 15.542969 15.089844 C 15.746094 14.988281 15.871094 14.789062 15.871094 14.566406 C 15.871094 14.34375 15.742188 14.144531 15.542969 14.046875 Z M 15.542969 14.046875 " fill-opacity="1" fill-rule="nonzero"/></g><g clip-path="url(#id2)"><path fill="rgb(100%, 100%, 100%)" d="M 19.605469 9.824219 C 17.804688 9.824219 16.78125 10.914062 16.753906 12.496094 L 16.753906 12.574219 L 18.34375 12.574219 L 18.34375 12.496094 C 18.378906 11.796875 18.824219 11.347656 19.5 11.347656 C 20.167969 11.347656 20.613281 11.765625 20.613281 12.355469 C 20.613281 12.949219 20.382812 13.253906 19.628906 13.742188 C 18.816406 14.253906 18.496094 14.828125 18.570312 15.84375 L 18.582031 16.113281 L 20.136719 16.113281 L 20.136719 15.855469 C 20.136719 15.246094 20.355469 14.933594 21.136719 14.445312 C 21.960938 13.917969 22.390625 13.253906 22.390625 12.300781 C 22.390625 10.832031 21.28125 9.824219 19.605469 9.824219 Z M 19.394531 17.292969 C 18.796875 17.292969 18.425781 17.667969 18.425781 18.28125 C 18.425781 18.886719 18.796875 19.257812 19.394531 19.257812 C 19.988281 19.257812 20.355469 18.886719 20.355469 18.28125 C 20.355469 17.667969 19.988281 17.292969 19.394531 17.292969 Z M 19.394531 17.292969 " fill-opacity="1" fill-rule="nonzero"/></g><g fill="rgb(100%, 100%, 100%)" fill-opacity="1"><g transform="translate(28.491725, 22.016128)"><g><path d="M 1.664062 0 L 5.128906 0 L 5.128906 -4.78125 L 6.8125 -4.78125 C 9.847656 -4.78125 12.5 -6.289062 12.5 -9.714844 C 12.5 -13.273438 9.886719 -14.394531 6.714844 -14.394531 L 1.664062 -14.394531 Z M 5.128906 -7.507812 L 5.128906 -11.667969 L 6.539062 -11.667969 C 8.203125 -11.667969 9.132812 -11.164062 9.132812 -9.714844 C 9.132812 -8.300781 8.320312 -7.507812 6.636719 -7.507812 Z M 5.128906 -7.507812 "/></g></g></g><g fill="rgb(100%, 100%, 100%)" fill-opacity="1"><g transform="translate(43.215515, 22.016128)"><g><path d="M 7.605469 0.269531 C 11.53125 0.269531 14.203125 -2.554688 14.203125 -7.277344 C 14.203125 -11.976562 11.53125 -14.667969 7.605469 -14.667969 C 3.675781 -14.667969 1.007812 -11.996094 1.007812 -7.277344 C 1.007812 -2.554688 3.675781 0.269531 7.605469 0.269531 Z M 7.605469 -2.710938 C 5.707031 -2.710938 4.546875 -4.46875 4.546875 -7.277344 C 4.546875 -10.0625 5.707031 -11.707031 7.605469 -11.707031 C 9.5 -11.707031 10.679688 -10.0625 10.679688 -7.277344 C 10.679688 -4.46875 9.5 -2.710938 7.605469 -2.710938 Z M 7.605469 -2.710938 "/></g></g></g><g fill="rgb(100%, 100%, 100%)" fill-opacity="1"><g transform="translate(59.85468, 22.016128)"><g><path d="M 1.664062 0 L 5.128906 0 L 5.128906 -4.78125 L 6.8125 -4.78125 C 9.847656 -4.78125 12.5 -6.289062 12.5 -9.714844 C 12.5 -13.273438 9.886719 -14.394531 6.714844 -14.394531 L 1.664062 -14.394531 Z M 5.128906 -7.507812 L 5.128906 -11.667969 L 6.539062 -11.667969 C 8.203125 -11.667969 9.132812 -11.164062 9.132812 -9.714844 C 9.132812 -8.300781 8.320312 -7.507812 6.636719 -7.507812 Z M 5.128906 -7.507812 "/></g></g></g><g fill="rgb(100%, 100%, 100%)" fill-opacity="1"><g transform="translate(74.578469, 22.016128)"><g><path d="M 7.429688 0.269531 C 11.261719 0.269531 13.195312 -1.914062 13.195312 -6.773438 L 13.195312 -14.394531 L 9.867188 -14.394531 L 9.867188 -6.40625 C 9.867188 -3.675781 8.996094 -2.710938 7.429688 -2.710938 C 5.84375 -2.710938 5.03125 -3.675781 5.03125 -6.40625 L 5.03125 -14.394531 L 1.585938 -14.394531 L 1.585938 -6.773438 C 1.585938 -1.914062 3.578125 0.269531 7.429688 0.269531 Z M 7.429688 0.269531 "/></g></g></g><g fill="rgb(100%, 100%, 100%)" fill-opacity="1"><g transform="translate(90.772643, 22.016128)"><g><path d="M 1.664062 0 L 10.71875 0 L 10.71875 -2.902344 L 5.128906 -2.902344 L 5.128906 -14.394531 L 1.664062 -14.394531 Z M 1.664062 0 "/></g></g></g><g fill="rgb(100%, 100%, 100%)" fill-opacity="1"><g transform="translate(103.755188, 22.016128)"><g><path d="M 1.664062 0 L 11.011719 0 L 11.011719 -2.902344 L 5.128906 -2.902344 L 5.128906 -5.960938 L 9.945312 -5.960938 L 9.945312 -8.863281 L 5.128906 -8.863281 L 5.128906 -11.53125 L 10.796875 -11.53125 L 10.796875 -14.394531 L 1.664062 -14.394531 Z M 1.664062 0 "/></g></g></g><g fill="rgb(100%, 100%, 100%)" fill-opacity="1"><g transform="translate(117.376192, 22.016128)"><g><path d="M 1.664062 0 L 4.953125 0 L 4.953125 -4.78125 C 4.953125 -6.519531 4.664062 -8.496094 4.507812 -10.101562 L 4.605469 -10.101562 L 6.019531 -6.945312 L 9.578125 0 L 13.101562 0 L 13.101562 -14.394531 L 9.808594 -14.394531 L 9.808594 -9.636719 C 9.808594 -7.914062 10.082031 -5.84375 10.273438 -4.316406 L 10.179688 -4.316406 L 8.765625 -7.507812 L 5.1875 -14.394531 L 1.664062 -14.394531 Z M 1.664062 0 "/></g></g></g><g fill="rgb(100%, 100%, 100%)" fill-opacity="1"><g transform="translate(133.589708, 22.016128)"><g><path d="M 1.664062 0 L 6 0 C 10.199219 0 13.101562 -2.265625 13.101562 -7.277344 C 13.101562 -12.289062 10.199219 -14.394531 5.804688 -14.394531 L 1.664062 -14.394531 Z M 5.128906 -2.785156 L 5.128906 -11.648438 L 5.59375 -11.648438 C 7.914062 -11.648438 9.558594 -10.699219 9.558594 -7.277344 C 9.558594 -3.851562 7.914062 -2.785156 5.59375 -2.785156 Z M 5.128906 -2.785156 "/></g></g></g><g clip-path="url(#id3)"><path fill="rgb(100%, 100%, 100%)" d="M 15.515625 5.804688 C 14.945312 5.804688 14.378906 5.863281 13.816406 5.972656 C 13.257812 6.085938 12.710938 6.25 12.183594 6.46875 C 11.65625 6.6875 11.152344 6.957031 10.675781 7.273438 C 10.203125 7.59375 9.761719 7.953125 9.359375 8.359375 C 8.953125 8.761719 8.59375 9.203125 8.273438 9.675781 C 7.957031 10.152344 7.6875 10.65625 7.46875 11.183594 C 7.25 11.710938 7.085938 12.257812 6.972656 12.816406 C 6.863281 13.378906 6.804688 13.945312 6.804688 14.515625 C 6.804688 15.089844 6.863281 15.65625 6.972656 16.214844 C 7.085938 16.777344 7.25 17.320312 7.46875 17.847656 C 7.6875 18.378906 7.957031 18.878906 8.273438 19.355469 C 8.59375 19.832031 8.953125 20.269531 9.359375 20.675781 C 9.761719 21.078125 10.203125 21.441406 10.675781 21.757812 C 11.152344 22.074219 11.65625 22.34375 12.183594 22.5625 C 12.710938 22.78125 13.257812 22.945312 13.816406 23.058594 C 14.378906 23.171875 14.945312 23.226562 15.515625 23.226562 C 16.089844 23.226562 16.65625 23.171875 17.214844 23.058594 C 17.777344 22.945312 18.320312 22.78125 18.847656 22.5625 C 19.378906 22.34375 19.878906 22.074219 20.355469 21.757812 C 20.832031 21.441406 21.269531 21.078125 21.675781 20.675781 C 22.078125 20.269531 22.441406 19.832031 22.757812 19.355469 C 23.074219 18.878906 23.34375 18.378906 23.5625 17.847656 C 23.78125 17.320312 23.945312 16.777344 24.058594 16.214844 C 24.171875 15.65625 24.226562 15.089844 24.226562 14.515625 C 24.226562 13.945312 24.171875 13.378906 24.058594 12.816406 C 23.945312 12.257812 23.78125 11.710938 23.5625 11.183594 C 23.34375 10.65625 23.074219 10.152344 22.757812 9.675781 C 22.441406 9.203125 22.078125 8.761719 21.675781 8.359375 C 21.269531 7.953125 20.832031 7.59375 20.355469 7.273438 C 19.878906 6.957031 19.378906 6.6875 18.847656 6.46875 C 18.320312 6.25 17.777344 6.085938 17.214844 5.972656 C 16.65625 5.863281 16.089844 5.804688 15.515625 5.804688 Z M 16.761719 17.554688 C 16.597656 17.578125 16.453125 17.535156 16.328125 17.429688 C 16.203125 17.320312 16.140625 17.183594 16.136719 17.019531 L 16.136719 15.589844 C 16.136719 15.464844 16.175781 15.351562 16.253906 15.253906 C 16.332031 15.15625 16.429688 15.09375 16.550781 15.066406 C 16.78125 15.015625 16.996094 14.921875 17.191406 14.789062 C 17.386719 14.65625 17.550781 14.492188 17.683594 14.296875 C 17.816406 14.101562 17.90625 13.886719 17.957031 13.65625 C 18.011719 13.425781 18.019531 13.195312 17.984375 12.960938 C 17.945312 12.726562 17.867188 12.507812 17.75 12.304688 C 17.628906 12.101562 17.476562 11.925781 17.292969 11.78125 C 17.105469 11.632812 16.902344 11.527344 16.675781 11.460938 C 16.449219 11.390625 16.21875 11.367188 15.984375 11.386719 C 15.746094 11.40625 15.523438 11.46875 15.3125 11.574219 C 15.101562 11.679688 14.914062 11.816406 14.757812 11.992188 C 14.597656 12.167969 14.476562 12.367188 14.394531 12.585938 C 14.308594 12.808594 14.269531 13.035156 14.273438 13.273438 L 14.273438 19.183594 C 14.273438 19.441406 14.179688 19.660156 14 19.84375 C 13.816406 20.023438 13.597656 20.113281 13.339844 20.113281 L 12.714844 20.113281 C 12.460938 20.113281 12.238281 20.023438 12.058594 19.84375 C 11.875 19.660156 11.785156 19.441406 11.785156 19.183594 L 11.785156 13.382812 C 11.777344 12.816406 11.875 12.269531 12.078125 11.742188 C 12.28125 11.214844 12.578125 10.742188 12.960938 10.328125 C 13.347656 9.910156 13.796875 9.582031 14.304688 9.335938 C 14.816406 9.09375 15.355469 8.953125 15.921875 8.917969 C 16.464844 8.910156 16.996094 9.003906 17.503906 9.195312 C 18.015625 9.386719 18.476562 9.664062 18.882812 10.027344 C 19.289062 10.390625 19.617188 10.816406 19.863281 11.304688 C 20.109375 11.792969 20.257812 12.308594 20.3125 12.851562 C 20.363281 13.394531 20.316406 13.925781 20.167969 14.453125 C 20.019531 14.976562 19.78125 15.457031 19.453125 15.894531 C 19.125 16.332031 18.726562 16.691406 18.261719 16.976562 C 17.796875 17.265625 17.296875 17.457031 16.761719 17.554688 Z M 16.761719 17.554688 " fill-opacity="1" fill-rule="nonzero"/></g></svg>