<svg xmlns="http://www.w3.org/2000/svg" xmlns:xlink="http://www.w3.org/1999/xlink" width="192" zoomAndPan="magnify" viewBox="0 0 144 143.999998" height="192" preserveAspectRatio="xMidYMid meet" version="1.0"><defs><clipPath id="id1"><path d="M 6.132812 68.449219 L 12.882812 68.449219 L 12.882812 75.199219 L 6.132812 75.199219 Z M 6.132812 68.449219 " clip-rule="nonzero"/></clipPath><clipPath id="id2"><path d="M 14.117188 67.34375 L 20.117188 67.34375 L 20.117188 76.34375 L 14.117188 76.34375 Z M 14.117188 67.34375 " clip-rule="nonzero"/></clipPath><clipPath id="id3"><path d="M 0 0 L 144 0 L 144 143.878906 L 0 143.878906 Z M 0 0 " clip-rule="nonzero"/></clipPath></defs><g clip-path="url(#id1)"><path fill="rgb(100%, 100%, 100%)" d="M 12.589844 71.339844 L 6.941406 68.539062 C 6.769531 68.453125 6.566406 68.460938 6.402344 68.5625 C 6.238281 68.660156 6.140625 68.835938 6.140625 69.023438 L 6.140625 74.628906 C 6.140625 74.816406 6.238281 74.992188 6.402344 75.089844 C 6.492188 75.144531 6.589844 75.171875 6.691406 75.171875 C 6.777344 75.171875 6.863281 75.152344 6.941406 75.113281 L 12.589844 72.308594 C 12.777344 72.21875 12.894531 72.03125 12.894531 71.824219 C 12.894531 71.617188 12.773438 71.433594 12.589844 71.339844 Z M 12.589844 71.339844 " fill-opacity="1" fill-rule="nonzero"/></g><g clip-path="url(#id2)"><path fill="rgb(100%, 100%, 100%)" d="M 17.167969 67.34375 C 15.308594 67.34375 14.253906 68.386719 14.222656 69.894531 L 14.222656 69.96875 L 15.867188 69.96875 L 15.867188 69.894531 C 15.902344 69.230469 16.363281 68.800781 17.058594 68.800781 C 17.75 68.800781 18.210938 69.199219 18.210938 69.761719 C 18.210938 70.324219 17.976562 70.617188 17.195312 71.082031 C 16.355469 71.574219 16.023438 72.117188 16.101562 73.085938 L 16.113281 73.34375 L 17.722656 73.34375 L 17.722656 73.097656 C 17.722656 72.519531 17.945312 72.21875 18.75 71.753906 C 19.605469 71.25 20.046875 70.617188 20.046875 69.707031 C 20.046875 68.308594 18.902344 67.34375 17.167969 67.34375 Z M 16.953125 74.46875 C 16.335938 74.46875 15.949219 74.828125 15.949219 75.410156 C 15.949219 75.988281 16.335938 76.34375 16.953125 76.34375 C 17.566406 76.34375 17.945312 75.988281 17.945312 75.410156 C 17.945312 74.828125 17.566406 74.46875 16.953125 74.46875 Z M 16.953125 74.46875 " fill-opacity="1" fill-rule="nonzero"/></g><g clip-path="url(#id3)"><path fill="rgb(100%, 100%, 100%)" d="M 72 -0.121094 C 70.820312 -0.121094 69.644531 -0.0898438 68.46875 -0.0351562 C 67.289062 0.0234375 66.117188 0.109375 64.941406 0.226562 C 63.769531 0.34375 62.601562 0.488281 61.433594 0.660156 C 60.269531 0.832031 59.109375 1.035156 57.953125 1.261719 C 56.796875 1.492188 55.648438 1.75 54.503906 2.039062 C 53.363281 2.324219 52.226562 2.636719 51.097656 2.980469 C 49.972656 3.324219 48.851562 3.691406 47.742188 4.089844 C 46.632812 4.484375 45.535156 4.910156 44.445312 5.359375 C 43.359375 5.8125 42.28125 6.289062 41.214844 6.792969 C 40.152344 7.296875 39.097656 7.828125 38.058594 8.382812 C 37.019531 8.9375 35.996094 9.519531 34.984375 10.125 C 33.972656 10.730469 32.980469 11.359375 32 12.015625 C 31.019531 12.667969 30.054688 13.347656 29.109375 14.050781 C 28.164062 14.75 27.234375 15.476562 26.324219 16.222656 C 25.414062 16.972656 24.519531 17.738281 23.648438 18.53125 C 22.773438 19.324219 21.921875 20.136719 21.089844 20.96875 C 20.253906 21.800781 19.441406 22.65625 18.652344 23.527344 C 17.859375 24.402344 17.089844 25.292969 16.34375 26.203125 C 15.597656 27.113281 14.871094 28.042969 14.167969 28.988281 C 13.46875 29.9375 12.789062 30.898438 12.132812 31.878906 C 11.480469 32.859375 10.847656 33.855469 10.242188 34.863281 C 9.636719 35.875 9.058594 36.898438 8.5 37.9375 C 7.945312 38.980469 7.417969 40.03125 6.914062 41.097656 C 6.410156 42.160156 5.929688 43.238281 5.480469 44.328125 C 5.03125 45.414062 4.605469 46.515625 4.207031 47.625 C 3.8125 48.734375 3.441406 49.851562 3.101562 50.980469 C 2.757812 52.105469 2.445312 53.242188 2.15625 54.386719 C 1.871094 55.527344 1.613281 56.679688 1.382812 57.832031 C 1.152344 58.988281 0.953125 60.148438 0.777344 61.316406 C 0.605469 62.480469 0.460938 63.648438 0.347656 64.824219 C 0.230469 65.996094 0.144531 67.171875 0.0859375 68.347656 C 0.0273438 69.523438 0 70.703125 0 71.878906 C 0 73.058594 0.0273438 74.234375 0.0859375 75.414062 C 0.144531 76.589844 0.230469 77.765625 0.347656 78.9375 C 0.460938 80.109375 0.605469 81.277344 0.777344 82.445312 C 0.953125 83.609375 1.152344 84.769531 1.382812 85.925781 C 1.613281 87.082031 1.871094 88.230469 2.15625 89.375 C 2.445312 90.519531 2.757812 91.652344 3.101562 92.78125 C 3.441406 93.90625 3.8125 95.027344 4.207031 96.136719 C 4.605469 97.246094 5.03125 98.34375 5.480469 99.433594 C 5.929688 100.523438 6.410156 101.597656 6.914062 102.664062 C 7.417969 103.730469 7.945312 104.78125 8.5 105.820312 C 9.058594 106.859375 9.636719 107.882812 10.242188 108.894531 C 10.847656 109.90625 11.480469 110.902344 12.132812 111.882812 C 12.789062 112.859375 13.46875 113.824219 14.167969 114.769531 C 14.871094 115.714844 15.597656 116.644531 16.34375 117.554688 C 17.089844 118.46875 17.859375 119.359375 18.652344 120.230469 C 19.441406 121.105469 20.253906 121.957031 21.089844 122.792969 C 21.921875 123.625 22.773438 124.4375 23.648438 125.226562 C 24.519531 126.019531 25.414062 126.789062 26.324219 127.535156 C 27.234375 128.285156 28.164062 129.007812 29.109375 129.710938 C 30.054688 130.414062 31.019531 131.089844 32 131.746094 C 32.980469 132.402344 33.972656 133.03125 34.984375 133.636719 C 35.996094 134.242188 37.019531 134.824219 38.058594 135.378906 C 39.097656 135.933594 40.152344 136.464844 41.214844 136.96875 C 42.28125 137.472656 43.359375 137.949219 44.445312 138.398438 C 45.535156 138.851562 46.632812 139.273438 47.742188 139.671875 C 48.851562 140.066406 49.972656 140.4375 51.097656 140.78125 C 52.226562 141.121094 53.363281 141.4375 54.503906 141.722656 C 55.648438 142.007812 56.796875 142.265625 57.953125 142.496094 C 59.109375 142.726562 60.269531 142.929688 61.433594 143.101562 C 62.601562 143.273438 63.769531 143.417969 64.941406 143.535156 C 66.117188 143.648438 67.289062 143.734375 68.46875 143.792969 C 69.644531 143.851562 70.820312 143.878906 72 143.878906 C 73.179688 143.878906 74.355469 143.851562 75.53125 143.792969 C 76.710938 143.734375 77.882812 143.648438 79.058594 143.535156 C 80.230469 143.417969 81.398438 143.273438 82.566406 143.101562 C 83.730469 142.929688 84.890625 142.726562 86.046875 142.496094 C 87.203125 142.265625 88.351562 142.007812 89.496094 141.722656 C 90.636719 141.4375 91.773438 141.121094 92.902344 140.78125 C 94.027344 140.4375 95.148438 140.066406 96.257812 139.671875 C 97.367188 139.273438 98.464844 138.851562 99.554688 138.398438 C 100.640625 137.949219 101.71875 137.472656 102.785156 136.96875 C 103.847656 136.464844 104.902344 135.933594 105.941406 135.378906 C 106.980469 134.824219 108.003906 134.242188 109.015625 133.636719 C 110.027344 133.03125 111.019531 132.402344 112 131.746094 C 112.980469 131.089844 113.945312 130.414062 114.890625 129.710938 C 115.835938 129.007812 116.765625 128.285156 117.675781 127.535156 C 118.585938 126.789062 119.480469 126.019531 120.351562 125.226562 C 121.226562 124.4375 122.078125 123.625 122.910156 122.792969 C 123.746094 121.957031 124.558594 121.105469 125.347656 120.230469 C 126.140625 119.359375 126.910156 118.46875 127.65625 117.554688 C 128.402344 116.644531 129.128906 115.714844 129.832031 114.769531 C 130.53125 113.824219 131.210938 112.859375 131.867188 111.882812 C 132.519531 110.902344 133.152344 109.90625 133.757812 108.894531 C 134.363281 107.882812 134.941406 106.859375 135.5 105.820312 C 136.054688 104.78125 136.582031 103.730469 137.085938 102.664062 C 137.589844 101.597656 138.070312 100.523438 138.519531 99.433594 C 138.96875 98.34375 139.394531 97.246094 139.792969 96.136719 C 140.1875 95.027344 140.558594 93.90625 140.898438 92.78125 C 141.242188 91.652344 141.554688 90.519531 141.84375 89.375 C 142.128906 88.230469 142.386719 87.082031 142.617188 85.925781 C 142.847656 84.769531 143.046875 83.609375 143.21875 82.445312 C 143.394531 81.277344 143.539062 80.109375 143.652344 78.9375 C 143.769531 77.765625 143.855469 76.589844 143.914062 75.414062 C 143.972656 74.234375 144 73.058594 144 71.878906 C 144 70.703125 143.972656 69.523438 143.914062 68.347656 C 143.855469 67.171875 143.769531 65.996094 143.652344 64.824219 C 143.539062 63.648438 143.394531 62.480469 143.21875 61.316406 C 143.046875 60.148438 142.847656 58.988281 142.617188 57.832031 C 142.386719 56.679688 142.128906 55.527344 141.84375 54.386719 C 141.554688 53.242188 141.242188 52.105469 140.898438 50.980469 C 140.558594 49.851562 140.1875 48.734375 139.792969 47.625 C 139.394531 46.515625 138.96875 45.414062 138.519531 44.328125 C 138.070312 43.238281 137.589844 42.160156 137.085938 41.097656 C 136.582031 40.03125 136.054688 38.980469 135.5 37.9375 C 134.941406 36.898438 134.363281 35.875 133.757812 34.863281 C 133.152344 33.855469 132.519531 32.859375 131.867188 31.878906 C 131.210938 30.898438 130.53125 29.9375 129.832031 28.988281 C 129.128906 28.042969 128.402344 27.113281 127.65625 26.203125 C 126.910156 25.292969 126.140625 24.402344 125.347656 23.527344 C 124.558594 22.65625 123.746094 21.800781 122.910156 20.96875 C 122.078125 20.136719 121.226562 19.324219 120.351562 18.53125 C 119.480469 17.738281 118.585938 16.972656 117.675781 16.222656 C 116.765625 15.476562 115.835938 14.75 114.890625 14.050781 C 113.945312 13.347656 112.980469 12.667969 112 12.015625 C 111.019531 11.359375 110.027344 10.730469 109.015625 10.125 C 108.003906 9.519531 106.980469 8.9375 105.941406 8.382812 C 104.902344 7.828125 103.847656 7.296875 102.785156 6.792969 C 101.71875 6.289062 100.640625 5.8125 99.554688 5.359375 C 98.464844 4.910156 97.367188 4.484375 96.257812 4.089844 C 95.148438 3.691406 94.027344 3.324219 92.902344 2.980469 C 91.773438 2.636719 90.636719 2.324219 89.496094 2.039062 C 88.351562 1.75 87.203125 1.492188 86.046875 1.261719 C 84.890625 1.035156 83.730469 0.832031 82.566406 0.660156 C 81.398438 0.488281 80.230469 0.34375 79.058594 0.226562 C 77.882812 0.109375 76.710938 0.0234375 75.53125 -0.0351562 C 74.355469 -0.0898438 73.179688 -0.121094 72 -0.121094 Z M 82.285156 97.003906 C 81.96875 97.046875 81.648438 97.058594 81.328125 97.039062 C 81.007812 97.015625 80.691406 96.960938 80.382812 96.871094 C 80.074219 96.78125 79.78125 96.65625 79.496094 96.503906 C 79.214844 96.351562 78.953125 96.171875 78.707031 95.960938 C 78.464844 95.75 78.246094 95.519531 78.050781 95.261719 C 77.859375 95.003906 77.695312 94.730469 77.558594 94.441406 C 77.425781 94.148438 77.320312 93.847656 77.25 93.53125 C 77.179688 93.21875 77.144531 92.902344 77.144531 92.578125 L 77.144531 80.75 C 77.140625 80.25 77.222656 79.765625 77.386719 79.292969 C 77.550781 78.820312 77.789062 78.386719 78.097656 77.992188 C 78.410156 77.601562 78.773438 77.269531 79.199219 77.003906 C 79.621094 76.734375 80.074219 76.542969 80.5625 76.429688 C 81.507812 76.21875 82.421875 75.917969 83.308594 75.53125 C 84.195312 75.144531 85.039062 74.675781 85.835938 74.132812 C 86.636719 73.585938 87.378906 72.96875 88.0625 72.285156 C 88.746094 71.601562 89.359375 70.859375 89.902344 70.058594 C 90.445312 69.257812 90.910156 68.414062 91.296875 67.527344 C 91.679688 66.636719 91.980469 65.722656 92.191406 64.777344 C 92.40625 63.835938 92.527344 62.878906 92.5625 61.910156 C 92.59375 60.945312 92.535156 59.984375 92.386719 59.027344 C 92.242188 58.070312 92.003906 57.136719 91.679688 56.226562 C 91.355469 55.3125 90.953125 54.441406 90.464844 53.605469 C 89.976562 52.769531 89.414062 51.984375 88.777344 51.257812 C 88.144531 50.527344 87.445312 49.863281 86.683594 49.265625 C 85.925781 48.664062 85.113281 48.144531 84.257812 47.695312 C 83.398438 47.25 82.503906 46.886719 81.578125 46.609375 C 80.652344 46.332031 79.707031 46.140625 78.746094 46.042969 C 77.78125 45.941406 76.820312 45.929688 75.855469 46.011719 C 74.890625 46.09375 73.941406 46.261719 73.011719 46.523438 C 72.078125 46.78125 71.179688 47.125 70.308594 47.554688 C 69.441406 47.980469 68.621094 48.488281 67.851562 49.070312 C 67.078125 49.652344 66.367188 50.300781 65.714844 51.019531 C 65.066406 51.734375 64.488281 52.507812 63.984375 53.332031 C 63.476562 54.15625 63.054688 55.023438 62.710938 55.925781 C 62.367188 56.832031 62.113281 57.761719 61.945312 58.714844 C 61.777344 59.667969 61.703125 60.625 61.714844 61.59375 L 61.714844 110.453125 C 61.714844 110.957031 61.664062 111.460938 61.566406 111.957031 C 61.46875 112.453125 61.320312 112.9375 61.128906 113.402344 C 60.933594 113.871094 60.695312 114.316406 60.414062 114.738281 C 60.132812 115.160156 59.8125 115.546875 59.453125 115.90625 C 59.097656 116.265625 58.707031 116.585938 58.285156 116.867188 C 57.863281 117.148438 57.421875 117.382812 56.953125 117.578125 C 56.484375 117.773438 56 117.917969 55.503906 118.015625 C 55.007812 118.117188 54.507812 118.164062 54 118.164062 L 48.855469 118.164062 C 48.351562 118.164062 47.847656 118.117188 47.351562 118.015625 C 46.855469 117.917969 46.371094 117.773438 45.90625 117.578125 C 45.4375 117.382812 44.992188 117.148438 44.570312 116.867188 C 44.148438 116.585938 43.761719 116.265625 43.402344 115.90625 C 43.042969 115.546875 42.722656 115.160156 42.441406 114.738281 C 42.160156 114.316406 41.925781 113.871094 41.730469 113.402344 C 41.535156 112.9375 41.390625 112.453125 41.292969 111.957031 C 41.191406 111.460938 41.144531 110.957031 41.144531 110.453125 L 41.144531 62.519531 C 41.128906 61.363281 41.171875 60.207031 41.269531 59.054688 C 41.363281 57.902344 41.515625 56.757812 41.722656 55.617188 C 41.925781 54.476562 42.183594 53.351562 42.496094 52.238281 C 42.808594 51.125 43.171875 50.027344 43.589844 48.945312 C 44.003906 47.867188 44.472656 46.808594 44.988281 45.773438 C 45.503906 44.738281 46.070312 43.730469 46.679688 42.75 C 47.292969 41.765625 47.949219 40.816406 48.652344 39.894531 C 49.355469 38.976562 50.101562 38.09375 50.886719 37.242188 C 51.671875 36.394531 52.496094 35.585938 53.359375 34.8125 C 54.222656 34.042969 55.121094 33.316406 56.054688 32.628906 C 56.984375 31.945312 57.949219 31.304688 58.941406 30.710938 C 59.933594 30.117188 60.953125 29.570312 61.996094 29.074219 C 63.042969 28.574219 64.105469 28.128906 65.195312 27.730469 C 66.28125 27.335938 67.382812 26.992188 68.503906 26.699219 C 69.625 26.40625 70.753906 26.167969 71.898438 25.984375 C 73.039062 25.800781 74.1875 25.667969 75.34375 25.59375 C 76.457031 25.578125 77.574219 25.617188 78.683594 25.707031 C 79.796875 25.796875 80.902344 25.9375 82 26.128906 C 83.101562 26.320312 84.1875 26.5625 85.265625 26.855469 C 86.34375 27.152344 87.402344 27.492188 88.445312 27.886719 C 89.492188 28.277344 90.515625 28.714844 91.519531 29.203125 C 92.523438 29.691406 93.503906 30.222656 94.457031 30.800781 C 95.410156 31.378906 96.335938 32 97.234375 32.664062 C 98.128906 33.328125 98.992188 34.035156 99.824219 34.777344 C 100.65625 35.523438 101.449219 36.304688 102.210938 37.121094 C 102.96875 37.941406 103.6875 38.792969 104.367188 39.679688 C 105.042969 40.5625 105.679688 41.476562 106.277344 42.421875 C 106.871094 43.367188 107.417969 44.335938 107.921875 45.332031 C 108.425781 46.328125 108.882812 47.34375 109.292969 48.382812 C 109.703125 49.421875 110.0625 50.476562 110.375 51.546875 C 110.683594 52.617188 110.945312 53.703125 111.15625 54.796875 C 111.367188 55.894531 111.527344 56.996094 111.632812 58.109375 C 111.742188 59.21875 111.796875 60.332031 111.804688 61.445312 C 111.808594 62.5625 111.761719 63.675781 111.660156 64.789062 C 111.5625 65.898438 111.410156 67.003906 111.210938 68.101562 C 111.007812 69.199219 110.753906 70.285156 110.453125 71.359375 C 110.148438 72.433594 109.796875 73.488281 109.398438 74.53125 C 108.996094 75.570312 108.546875 76.59375 108.050781 77.59375 C 107.554688 78.589844 107.015625 79.566406 106.429688 80.515625 C 105.839844 81.464844 105.210938 82.382812 104.539062 83.273438 C 103.867188 84.164062 103.15625 85.023438 102.40625 85.847656 C 101.652344 86.671875 100.863281 87.460938 100.039062 88.210938 C 99.214844 88.960938 98.355469 89.671875 97.464844 90.34375 C 96.574219 91.015625 95.652344 91.644531 94.703125 92.230469 C 93.753906 92.816406 92.777344 93.355469 91.777344 93.851562 C 90.777344 94.347656 89.757812 94.796875 88.71875 95.195312 C 87.675781 95.59375 86.617188 95.945312 85.542969 96.25 C 84.46875 96.550781 83.382812 96.800781 82.285156 97.003906 Z M 82.285156 97.003906 " fill-opacity="1" fill-rule="nonzero"/></g></svg>